<svg width="15" height="14" viewBox="0 0 15 14" fill="none" xmlns="http://www.w3.org/2000/svg">
<path d="M11.004 0C10.1479 0 9.43371 0.597604 9.28145 1.38466L3.65786 3.64741H1.6193C0.726378 3.64741 0 4.31407 0 5.13354V7.68998C0 8.30355 0.407285 8.83141 0.986747 9.05799V12.3948C0.986747 13.2799 1.73011 14 2.64386 14C3.55761 14 4.30097 13.2799 4.30097 12.3948V9.43489L9.28145 11.4389C9.43371 12.2259 10.148 12.8236 11.004 12.8236C11.9706 12.8236 12.757 12.0618 12.757 11.1255V9.21254C14.0478 8.88816 15 7.73961 15 6.41176C15 5.08385 14.0478 3.93536 12.757 3.61106V1.69805C12.757 0.761692 11.9706 0 11.004 0ZM4.30097 4.51354L9.25105 2.52181V10.3019L4.30097 8.31005V4.51354ZM1.07237 5.13354C1.07237 4.88693 1.31768 4.6862 1.61922 4.6862H3.22853V8.13725H1.6193C1.31776 8.13725 1.07244 7.9366 1.07244 7.68991V5.13354H1.07237ZM2.64386 12.9612C2.32141 12.9612 2.05912 12.7071 2.05912 12.3948V9.17611H3.22853V12.3948C3.2286 12.7071 2.96624 12.9612 2.64386 12.9612ZM11.6846 11.1255C11.6846 11.489 11.3792 11.7848 11.004 11.7848C10.6287 11.7848 10.3234 11.489 10.3234 11.1255V1.69805C10.3234 1.33455 10.6287 1.03879 11.004 1.03879C11.3792 1.03879 11.6846 1.33448 11.6846 1.69805V11.1255ZM13.9276 6.41176C13.9276 7.16848 13.4453 7.83437 12.757 8.11887V4.70473C13.4452 4.98915 13.9276 5.65498 13.9276 6.41176Z" fill="white"/>
</svg>
