<svg width="132" height="109" viewBox="0 0 132 109" fill="none"
    xmlns="http://www.w3.org/2000/svg">
    <path d="M40.3107 63.5186C40.9195 62.9098 40.9195 61.8952 40.3107 61.2863L35.4403 56.4159L41.7312 50.1249C42.3401 49.5161 42.3401 48.5014 41.7312 47.8926C41.1224 47.2838 40.1078 47.2838 39.499 47.8926L33.208 54.1836L27.5258 48.5014C26.917 47.8926 25.9023 47.8926 25.2935 48.5014C24.6847 49.1103 24.6847 50.1249 25.2935 50.7337L30.9757 56.4159L25.2935 62.0981C24.6847 62.7069 24.6847 63.7216 25.2935 64.3304C25.9023 64.9392 26.917 64.9392 27.5258 64.3304L33.208 58.6482L38.0784 63.5186C38.8902 64.1274 39.7019 64.1274 40.3107 63.5186ZM39.7019 83.6092C39.0931 84.218 39.0931 85.2327 39.9048 85.8415C40.5136 86.4503 41.5283 86.4503 42.1371 85.6385C52.0809 74.6801 69.1275 74.883 78.8683 85.0297C79.4771 85.6385 80.4918 85.6385 81.1006 85.0297C81.7094 84.4209 81.7094 83.4062 81.1006 82.7974C69.9392 71.4331 50.8633 71.2302 39.7019 83.6092Z" fill="#424262"/>
    <path d="M115.6 95.7848L120.876 42.007C121.079 39.7747 120.267 37.5425 118.847 35.919C117.426 34.2955 115.194 33.2808 112.961 33.2808V19.2783C112.961 14.002 108.903 9.74037 103.626 9.53743L18.1908 8.31982C12.7116 8.31982 8.65287 12.5815 8.44993 17.6548V21.3077C6.01471 21.9165 4.1883 23.5399 3.17362 25.9752C1.95601 27.3957 1.14428 29.2221 0.738405 30.6427C-0.27627 34.2955 -0.0733347 38.1513 0.332535 42.007C1.95601 59.8653 3.57949 77.5206 5.00004 95.3789C5.60884 103.09 7.63819 106.337 18.7996 106.946C50.6604 108.57 82.5212 108.367 114.382 107.758C115.6 107.758 117.02 107.758 118.035 107.149C119.252 106.54 120.064 105.323 119.861 104.105C119.252 101.467 114.788 101.873 112.15 101.67C113.976 100.452 115.194 98.4229 115.6 95.7848ZM18.1908 11.5668L103.626 12.7844C107.076 12.7844 110.12 15.8284 109.917 19.2783V33.4838H80.086C77.8537 33.4838 75.6214 32.4691 73.9979 30.8456L69.3304 25.5693C66.8952 22.9311 63.4453 21.3077 59.7925 21.3077H11.494V18.0607C11.494 14.2049 14.538 11.3638 18.1908 11.5668ZM107.685 100.046H16.1615C13.7262 100.046 11.494 98.22 11.291 95.5819L5.40591 29.4251C5.20297 26.584 7.43526 24.1488 10.2763 24.1488H59.7925C62.6336 24.1488 65.2717 25.3664 67.0981 27.3957L71.7656 32.672C73.795 35.1072 76.839 36.5278 80.086 36.5278H112.961C114.382 36.5278 115.6 37.1366 116.614 38.1513C117.629 39.1659 118.035 40.5865 117.832 41.8041L112.556 95.5819C112.353 98.0171 110.12 100.046 107.685 100.046Z" fill="#424262"/>
    <path d="M86.377 53.7778L90.8416 49.3132C91.4504 48.7044 91.4504 47.6897 90.8416 47.0809C90.2328 46.4721 89.2181 46.4721 88.6093 47.0809L84.1447 51.5455L78.4626 45.8633C77.8538 45.2545 76.8391 45.2545 76.2303 45.8633C75.6215 46.4721 75.6215 47.4868 76.2303 48.0956L81.9125 53.7778L76.6362 59.0541C76.0274 59.6629 76.0274 60.6775 76.6362 61.2864C77.245 61.8952 78.2596 61.8952 78.8684 61.2864L84.1447 56.01L89.8269 61.6922C90.4357 62.301 91.4504 62.301 92.0592 61.6922C92.668 61.0834 92.668 60.0687 92.0592 59.4599L86.377 53.7778ZM113.976 0.608804C112.15 3.04402 110.729 5.47924 109.715 8.32033C109.512 9.13207 109.917 9.94381 110.729 10.1467C111.541 10.3497 112.353 9.94381 112.556 9.13207C113.367 6.69685 114.585 4.26163 116.208 2.23228C116.817 1.62348 116.614 0.608805 116.006 0C115.397 0 114.585 -6.04793e-07 113.976 0.608804ZM126.964 6.49392C126.558 5.88511 125.543 5.47924 124.935 6.08805L115.397 12.1761C114.788 12.582 114.585 13.5966 114.991 14.2054C115.397 14.8142 116.411 15.2201 117.02 14.6113L126.558 8.52327C127.167 8.1174 127.37 7.10272 126.964 6.49392ZM129.805 17.4524L119.05 18.2641C118.238 18.2641 117.629 19.0759 117.629 19.8876C117.629 20.6994 118.441 21.3082 119.252 21.3082L130.008 20.4964C130.82 20.4964 131.429 19.6847 131.429 18.8729C131.226 18.0612 130.617 17.4524 129.805 17.4524Z" fill="#424262"/>
</svg>
