<svg width="27" height="27" viewBox="0 0 27 27" fill="none"
    xmlns="http://www.w3.org/2000/svg">
    <path d="M8.60626 23.5236C8.5725 23.5236 8.52751 23.5461 8.49376 23.5461C6.31125 22.4661 4.53375 20.6773 3.4425 18.4948C3.4425 18.4611 3.465 18.4161 3.465 18.3823C4.8375 18.7873 6.255 19.0911 7.66125 19.3273C7.90875 20.7448 8.20125 22.1511 8.60626 23.5236Z" fill="white"/>
    <path d="M23.5575 18.5061C22.4438 20.7448 20.5875 22.5561 18.3263 23.6473C18.7538 22.2186 19.1138 20.7786 19.35 19.3273C20.7675 19.0911 22.1625 18.7873 23.535 18.3823C23.5238 18.4273 23.5575 18.4723 23.5575 18.5061Z" fill="white"/>
    <path d="M23.6475 8.67379C22.23 8.24629 20.8013 7.89754 19.35 7.65004C19.1138 6.19879 18.765 4.75879 18.3263 3.35254C20.655 4.46629 22.5338 6.34504 23.6475 8.67379Z" fill="white"/>
    <path d="M8.60629 3.47613C8.20129 4.84863 7.90879 6.24363 7.67254 7.66113C6.22129 7.88613 4.78129 8.24613 3.35254 8.67363C4.44379 6.41238 6.25504 4.55613 8.49379 3.44238C8.52754 3.44238 8.57254 3.47613 8.60629 3.47613Z" fill="white"/>
    <path d="M17.4262 7.41375C14.8162 7.12125 12.1837 7.12125 9.57373 7.41375C9.85498 5.8725 10.215 4.33125 10.7212 2.84625C10.7437 2.75625 10.7325 2.68875 10.7437 2.59875C11.6325 2.385 12.5437 2.25 13.5 2.25C14.445 2.25 15.3675 2.385 16.245 2.59875C16.2562 2.68875 16.2562 2.75625 16.2787 2.84625C16.785 4.3425 17.145 5.8725 17.4262 7.41375Z" fill="white"/>
    <path d="M7.41375 17.4262C5.86125 17.145 4.33125 16.785 2.84625 16.2787C2.75625 16.2562 2.68875 16.2675 2.59875 16.2562C2.385 15.3675 2.25 14.4562 2.25 13.5C2.25 12.555 2.385 11.6325 2.59875 10.755C2.68875 10.7437 2.75625 10.7437 2.84625 10.7212C4.3425 10.2262 5.86125 9.85498 7.41375 9.57373C7.1325 12.1837 7.1325 14.8162 7.41375 17.4262Z" fill="white"/>
    <path d="M24.7501 13.5C24.7501 14.4562 24.6151 15.3675 24.4013 16.2562C24.3113 16.2675 24.2438 16.2562 24.1538 16.2787C22.6576 16.7737 21.1276 17.145 19.5863 17.4262C19.8788 14.8162 19.8788 12.1837 19.5863 9.57373C21.1276 9.85498 22.6688 10.215 24.1538 10.7212C24.2438 10.7437 24.3113 10.755 24.4013 10.755C24.6151 11.6437 24.7501 12.555 24.7501 13.5Z" fill="white"/>
    <path d="M17.4262 19.5864C17.145 21.1389 16.785 22.6689 16.2787 24.1539C16.2562 24.2439 16.2562 24.3114 16.245 24.4014C15.3675 24.6152 14.445 24.7502 13.5 24.7502C12.5437 24.7502 11.6325 24.6152 10.7437 24.4014C10.7325 24.3114 10.7437 24.2439 10.7212 24.1539C10.2262 22.6577 9.85498 21.1389 9.57373 19.5864C10.8787 19.7327 12.1837 19.8339 13.5 19.8339C14.8162 19.8339 16.1325 19.7327 17.4262 19.5864Z" fill="white"/>
    <path d="M17.7337 17.7337C14.92 18.0887 12.08 18.0887 9.26625 17.7337C8.91125 14.92 8.91125 12.08 9.26625 9.26625C12.08 8.91125 14.92 8.91125 17.7337 9.26625C18.0887 12.08 18.0887 14.92 17.7337 17.7337Z" fill="white"/>
</svg>
