<svg width="18" height="18" viewBox="0 0 18 18" fill="none"
    xmlns="http://www.w3.org/2000/svg">
    <path d="M16.3425 15.57L15.8025 15.03C16.08 14.61 16.245 14.1 16.245 13.56C16.245 12.075 15.045 10.875 13.56 10.875C12.075 10.875 10.875 12.075 10.875 13.56C10.875 15.045 12.075 16.245 13.56 16.245C14.1075 16.245 14.61 16.08 15.03 15.8025L15.57 16.3425C15.675 16.4475 15.8175 16.5 15.9525 16.5C16.095 16.5 16.23 16.4475 16.335 16.3425C16.5525 16.125 16.5525 15.78 16.3425 15.57Z" fill="white"/>
    <path d="M1.52257 10.9727C1.52257 10.9952 1.50757 11.0252 1.50757 11.0477C2.19757 12.4277 3.32257 13.5602 4.70257 14.2427C4.72507 14.2427 4.75507 14.2277 4.77757 14.2277C4.52257 13.3577 4.32757 12.4652 4.18507 11.5727C3.28507 11.4227 2.39257 11.2277 1.52257 10.9727Z" fill="white"/>
    <path d="M14.3026 4.82258C13.5976 3.34508 12.4051 2.15258 10.9351 1.45508C11.2051 2.34758 11.4301 3.26258 11.5801 4.17758C12.4951 4.32758 13.4101 4.54508 14.3026 4.82258Z" fill="white"/>
    <path d="M1.44751 4.82264C2.34751 4.55264 3.26251 4.32764 4.17751 4.17764C4.32751 3.28514 4.51501 2.40014 4.77001 1.53014C4.74751 1.53014 4.71751 1.51514 4.69501 1.51514C3.28501 2.21264 2.13751 3.39014 1.44751 4.82264Z" fill="white"/>
    <path d="M10.365 4.02C10.185 3.045 9.96001 2.07 9.63751 1.125C9.62251 1.0725 9.62251 1.0275 9.61501 0.9675C9.06001 0.8325 8.47501 0.75 7.87501 0.75C7.26751 0.75 6.69001 0.8325 6.12751 0.975C6.12001 1.0275 6.12751 1.0725 6.11251 1.1325C5.79751 2.0775 5.56501 3.045 5.38501 4.02C7.04251 3.84 8.70751 3.84 10.365 4.02Z" fill="white"/>
    <path d="M4.02 5.38477C3.0375 5.56477 2.0775 5.79727 1.125 6.11227C1.0725 6.12727 1.0275 6.12727 0.975 6.13477C0.8325 6.68977 0.75 7.27477 0.75 7.87477C0.75 8.48227 0.8325 9.05977 0.975 9.62227C1.0275 9.62977 1.0725 9.62227 1.1325 9.63727C2.0775 9.95227 3.045 10.1848 4.0275 10.3648C3.84 8.70727 3.84 7.04227 4.02 5.38477Z" fill="white"/>
    <path d="M14.7749 6.13477C14.7224 6.13477 14.6774 6.12727 14.6174 6.11227C13.6724 5.79727 12.6974 5.56477 11.7224 5.38477C11.9099 7.04227 11.9099 8.70727 11.7224 10.3573C12.6974 10.1773 13.6724 9.95227 14.6174 9.62977C14.6699 9.61477 14.7149 9.62227 14.7749 9.61477C14.9099 9.05227 14.9999 8.47477 14.9999 7.86727C14.9999 7.27477 14.9174 6.69727 14.7749 6.13477Z" fill="white"/>
    <path d="M5.38501 11.7302C5.56501 12.7127 5.79001 13.6802 6.11251 14.6252C6.12751 14.6777 6.12001 14.7227 6.12751 14.7827C6.69001 14.9177 7.26751 15.0002 7.87501 15.0002C8.47501 15.0002 9.06001 14.9177 9.61501 14.7752C9.62251 14.7227 9.62251 14.6777 9.63751 14.6177C9.95251 13.6727 10.185 12.7052 10.365 11.7227C9.54001 11.8127 8.70751 11.8802 7.87501 11.8802C7.04251 11.8802 6.21001 11.8202 5.38501 11.7302Z" fill="white"/>
    <path d="M5.21245 5.2127C4.98745 6.9827 4.98745 8.7677 5.21245 10.5452C6.98245 10.7702 8.76745 10.7702 10.545 10.5452C10.77 8.7752 10.77 6.9902 10.545 5.2127C8.76745 4.9877 6.98245 4.9877 5.21245 5.2127Z" fill="white"/>
</svg>
