<svg width="16" height="16" viewBox="0 0 16 16" fill="none"
    xmlns="http://www.w3.org/2000/svg">
    <path fill-rule="evenodd" clip-rule="evenodd" d="M7.99992 1.8335C4.5707 1.8335 1.83325 4.595 1.83325 8.00016C1.83325 8.2763 1.60939 8.50016 1.33325 8.50016C1.05711 8.50016 0.833252 8.2763 0.833252 8.00016C0.833252 4.04532 4.01581 0.833496 7.99992 0.833496C10.3717 0.833496 12.1478 1.82416 13.321 2.80288C13.6486 3.07617 13.9304 3.34939 14.1666 3.6015V1.70683C14.1666 1.43069 14.3904 1.20683 14.6666 1.20683C14.9427 1.20683 15.1666 1.43069 15.1666 1.70683V5.04016C15.1666 5.3163 14.9427 5.54016 14.6666 5.54016H11.7066C11.4304 5.54016 11.2066 5.3163 11.2066 5.04016C11.2066 4.76402 11.4304 4.54016 11.7066 4.54016H13.6661C13.4173 4.25176 13.0885 3.91121 12.6805 3.57077C11.632 2.69616 10.0748 1.8335 7.99992 1.8335ZM14.6666 7.50016C14.9427 7.50016 15.1666 7.72402 15.1666 8.00016C15.1666 11.9563 11.9561 15.1668 7.99992 15.1668C5.98628 15.1668 4.38958 14.1534 3.32067 13.1838C3.03694 12.9265 2.78722 12.6695 2.57325 12.4305V14.2935C2.57325 14.5696 2.34939 14.7935 2.07325 14.7935C1.79711 14.7935 1.57325 14.5696 1.57325 14.2935V10.9602C1.57325 10.684 1.79711 10.4602 2.07325 10.4602H5.08658C5.36273 10.4602 5.58658 10.684 5.58658 10.9602C5.58658 11.2363 5.36273 11.4602 5.08658 11.4602H3.05798C3.29851 11.7526 3.6122 12.0982 3.9925 12.4431C4.96693 13.327 6.33356 14.1668 7.99992 14.1668C11.4038 14.1668 14.1666 11.404 14.1666 8.00016C14.1666 7.72402 14.3904 7.50016 14.6666 7.50016Z" fill="white"/>
</svg>
