<svg width="17" height="17" viewBox="0 0 17 17" fill="none" xmlns="http://www.w3.org/2000/svg">
<path d="M14.0959 9.5625H2.90425C1.84175 9.5625 1.41675 10.0158 1.41675 11.1421V14.0038C1.41675 15.13 1.84175 15.5833 2.90425 15.5833H14.0959C15.1584 15.5833 15.5834 15.13 15.5834 14.0038V11.1421C15.5834 10.0158 15.1584 9.5625 14.0959 9.5625Z" stroke="white" stroke-linecap="round" stroke-linejoin="round"/>
<path d="M14.0959 1.4165H2.90425C1.84175 1.4165 1.41675 1.86984 1.41675 2.99609V5.85775C1.41675 6.984 1.84175 7.43734 2.90425 7.43734H14.0959C15.1584 7.43734 15.5834 6.984 15.5834 5.85775V2.99609C15.5834 1.86984 15.1584 1.4165 14.0959 1.4165Z" stroke="white" stroke-linecap="round" stroke-linejoin="round"/>
<circle cx="4" cy="4.5" r="1" fill="white"/>
<circle cx="4" cy="12.5" r="1" fill="white"/>
</svg>
