<svg width="18" height="18" viewBox="0 0 18 18" fill="none"
    xmlns="http://www.w3.org/2000/svg">
    <path d="M7.01317 2.19922H4.3209C2.93001 2.19922 2.24146 2.88778 2.24146 4.27867V6.97782C2.24146 8.39625 2.93001 9.08481 4.3209 9.05038H7.02006C8.43849 9.08481 9.12705 8.39625 9.09262 6.97093V4.27867C9.12705 2.88778 8.43849 2.19922 7.01317 2.19922ZM7.06826 7.54244C6.60004 7.54244 6.14559 7.36341 5.76688 7.04668C5.33997 7.35653 4.82355 7.54244 4.26582 7.54244C3.98351 7.54244 3.7494 7.30833 3.7494 7.02602C3.7494 6.74371 3.98351 6.5096 4.26582 6.5096C4.96815 6.5096 5.55343 6.02761 5.76688 5.36659H4.26582C3.98351 5.36659 3.7494 5.13248 3.7494 4.85017C3.7494 4.56786 3.98351 4.33375 4.26582 4.33375H5.15406C5.1816 4.0721 5.39506 3.86553 5.66359 3.86553C5.93213 3.86553 6.14559 4.0721 6.17313 4.33375H6.35215C6.35904 4.33375 6.36593 4.33375 6.36593 4.33375H6.3797H7.06137C7.34368 4.33375 7.57779 4.56786 7.57779 4.85017C7.57779 5.13248 7.35056 5.36659 7.06137 5.36659H6.83415C6.77218 5.6971 6.64135 6.00695 6.46921 6.28926C6.65512 6.42697 6.8548 6.5096 7.06826 6.5096C7.35056 6.5096 7.58468 6.74371 7.58468 7.02602C7.58468 7.30833 7.35056 7.54244 7.06826 7.54244Z" fill="white"/>
    <path d="M7.06143 16.4865C4.12128 16.4865 1.7251 14.0904 1.7251 11.1502C1.7251 10.8679 1.95921 10.6338 2.24152 10.6338C2.52383 10.6338 2.75794 10.8679 2.75794 11.1502C2.75794 13.1883 4.17637 14.896 6.08368 15.3435L5.89777 15.0337C5.75317 14.7858 5.82891 14.4691 6.07679 14.3245C6.31779 14.1799 6.64141 14.2556 6.78601 14.5035L7.509 15.7085C7.60539 15.8668 7.60539 16.0665 7.51588 16.2249C7.41948 16.3833 7.24734 16.4865 7.06143 16.4865Z" fill="white"/>
    <path d="M16.0128 7.53537C15.7305 7.53537 15.4964 7.30126 15.4964 7.01895C15.4964 4.98082 14.0779 3.27319 12.1706 2.82563L12.3565 3.13548C12.5011 3.38336 12.4254 3.7001 12.1775 3.84469C11.9365 3.98929 11.6129 3.91355 11.4683 3.66567L10.7453 2.46069C10.6489 2.30232 10.6489 2.10264 10.7384 1.94427C10.8348 1.7859 11.007 1.68262 11.1929 1.68262C14.133 1.68262 16.5292 4.0788 16.5292 7.01895C16.5292 7.30126 16.2951 7.53537 16.0128 7.53537Z" fill="white"/>
    <path d="M12.515 8.98096C10.587 8.98096 9.01709 10.544 9.01709 12.4788C9.01709 14.4068 10.5801 15.9767 12.515 15.9767C14.4429 15.9767 16.0129 14.4137 16.0129 12.4788C16.0129 10.544 14.4498 8.98096 12.515 8.98096ZM14.2226 14.1383C13.9678 14.2622 13.658 14.1658 13.5272 13.9042L13.4101 13.67H11.6267L11.5097 13.9042C11.4202 14.0832 11.2343 14.1865 11.0483 14.1865C10.9726 14.1865 10.89 14.1658 10.8211 14.1314C10.5663 14.0006 10.4631 13.6907 10.587 13.4359L12.0605 10.4958C12.15 10.3236 12.3291 10.2135 12.5219 10.2135C12.7147 10.2135 12.8937 10.3236 12.9832 10.5027L14.4567 13.4428C14.5806 13.6976 14.4774 14.0074 14.2226 14.1383Z" fill="white"/>
    <path d="M12.1431 12.6372H12.8936L12.5149 11.8867L12.1431 12.6372Z" fill="white"/>
</svg>
