<svg width="18" height="18" viewBox="0 0 18 18" fill="none" xmlns="http://www.w3.org/2000/svg">
<path d="M4.2 7.31641H3C2.5875 7.31641 2.25 7.67376 2.25 8.11052V14.9558C2.25 15.3926 2.5875 15.7499 3 15.7499H4.2C4.6125 15.7499 4.95 15.3926 4.95 14.9558V8.11052C4.95 7.66582 4.6125 7.31641 4.2 7.31641Z" fill="#14AE5C"/>
<path d="M9.60002 4.7832H8.40002C7.98752 4.7832 7.65002 5.14056 7.65002 5.57732V14.9559C7.65002 15.3926 7.98752 15.75 8.40002 15.75H9.60002C10.0125 15.75 10.35 15.3926 10.35 14.9559V5.57732C10.35 5.14056 10.0125 4.7832 9.60002 4.7832Z" fill="#14AE5C"/>
<path d="M15 2.25H13.8C13.3875 2.25 13.05 2.60735 13.05 3.04412V14.9559C13.05 15.3926 13.3875 15.75 13.8 15.75H15C15.4125 15.75 15.75 15.3926 15.75 14.9559V3.04412C15.75 2.60735 15.4125 2.25 15 2.25Z" fill="#14AE5C"/>
</svg>
