<svg width="512" height="512" viewBox="0 0 512 512" fill="none" xmlns="http://www.w3.org/2000/svg">
<rect width="512" height="512" rx="86" fill="#396AFC"/>
<path d="M182.543 356.174C182.263 356.618 161.558 390.906 218.318 369.682C218.318 369.682 246.643 350.6 254.093 337.168C254.673 336.104 255.144 334.985 255.5 333.827C255.854 334.985 256.323 336.104 256.902 337.168C264.353 350.583 292.677 369.682 292.677 369.682C349.437 390.906 328.736 356.631 328.457 356.174C362.745 369.983 391.061 346.336 391.061 346.336C381.126 349.318 357.78 330.064 357.78 330.064C402.501 335.029 410.453 310.166 410.453 310.166L375.171 304.721C428.824 298.256 433 263.967 433 263.967L392.055 267.597C424.356 259.645 425.336 228.103 425.336 228.103L392.055 233.45C430.315 211.582 429.818 187.97 429.818 187.97L400.566 186.351C435.844 162.992 423.921 135 423.921 135L359.821 192.821L296.649 253.042C269.793 276.516 259.13 296.019 255.496 310.321C251.866 296.019 241.202 276.516 214.347 253.042L151.174 192.821L87.0791 135.013C87.0791 135.013 75.1511 163.005 110.429 186.364L81.1773 187.984C81.1773 187.984 80.6802 211.596 118.94 233.464L85.6591 228.117C85.6591 228.117 86.6531 259.645 118.94 267.61L78 263.967C78 263.967 82.1712 298.256 135.838 304.717L100.556 310.161C100.556 310.161 108.508 335.011 153.229 330.059C153.229 330.059 129.874 349.313 119.948 346.331C119.948 346.331 148.263 369.983 182.552 356.174" fill="white"/>
</svg>
